<svg xmlns="http://www.w3.org/2000/svg" viewBox="0 0 27.32 23.9"><title>twitter</title><g id="Layer_2" data-name="Layer 2"><g id="guides"><path d="M27.32,2.83a10.39,10.39,0,0,1-3.22,1A6,6,0,0,0,26.57.45,11.25,11.25,0,0,1,23,1.91,5.41,5.41,0,0,0,18.91,0a5.83,5.83,0,0,0-5.6,6,6.62,6.62,0,0,0,.14,1.37A15.56,15.56,0,0,1,1.9,1.11a6.36,6.36,0,0,0-.76,3,6.12,6.12,0,0,0,2.49,5A5.29,5.29,0,0,1,1.1,8.4v.08A6,6,0,0,0,5.59,14.4a5.28,5.28,0,0,1-1.48.2,4.45,4.45,0,0,1-1-.11A5.65,5.65,0,0,0,8.3,18.68a10.7,10.7,0,0,1-7,2.58A10.26,10.26,0,0,1,0,21.18,15,15,0,0,0,8.59,23.9c10.31,0,15.95-9.2,15.95-17.17,0-.26,0-.51,0-.77A12.21,12.21,0,0,0,27.32,2.83Z"/></g></g></svg>