<?xml version="1.0" encoding="utf-8"?>
<!-- Generator: Adobe Illustrator 20.0.0, SVG Export Plug-In . SVG Version: 6.00 Build 0)  -->
<svg version="1.1" id="Layer_1" xmlns="http://www.w3.org/2000/svg" xmlns:xlink="http://www.w3.org/1999/xlink" x="0px" y="0px"
	 viewBox="0 0 176 176" style="enable-background:new 0 0 176 176;" xml:space="preserve">
<style type="text/css">
	.st0{fill:#FFFFFF;}
	.st1{fill:#ffa700;}
	.st2{fill:#666666;}
	.st3{font-family:'FiraSans-Medium';}
	.st4{font-size:29px;}
	.st5{font-family:'FiraSans-Light';}
	.st6{font-size:27.8847px;}
</style>
<rect class="st0" width="176" height="176"/>
<path class="st1" d="M87.4,64.8h-5.7v21.8h5.7h1.9h2.8l0.5-0.7H96l0.5,0.7h4.1V60L87.4,58V64.8z M86.1,84.2h-2.8v-1.5h2.8V84.2z
	 M86.1,81.7h-2.8v-1.5h2.8V81.7z M86.1,79.1h-2.8v-1.5h2.8V79.1z M86.1,76.6h-2.8V75h2.8V76.6z M96.5,61.7h2.7v3.1h-2.7V61.7z
	 M96.5,65.9h2.7V69h-2.7V65.9z M96.5,70.1h2.7v3.1h-2.7V70.1z M96.5,74.3h2.7v3.1h-2.7V74.3z M92.9,61.7h2.7v3.1h-2.7V61.7z
	 M92.9,65.9h2.7V69h-2.7V65.9z M92.9,70.1h2.7v3.1h-2.7V70.1z M92.9,74.3h2.7v3.1h-2.7V74.3z M92.6,79H96v6h-3.4V79z M89.3,61.7H92
	v3.1h-2.7V61.7z M89.3,65.9H92V69h-2.7V65.9z M89.3,70.1H92v3.1h-2.7V70.1z M89.3,74.3H92v3.1h-2.7V74.3z"/>
<text transform="matrix(1 0 0 1 11 86.5825)" class="st2 st3 st4">archi</text>
<text transform="matrix(1 0 0 1 106 86.5825)" class="st2 st3 st4">tech</text>
<text transform="matrix(1 0 0 1 11.6025 113.5391)" class="st1 st5 st6">PROPERTIES</text>
</svg>
