<?xml version="1.0" encoding="utf-8"?>
<!-- Generator: Adobe Illustrator 20.0.0, SVG Export Plug-In . SVG Version: 6.00 Build 0)  -->
<svg version="1.1" id="Layer_1" xmlns="http://www.w3.org/2000/svg" xmlns:xlink="http://www.w3.org/1999/xlink" x="0px" y="0px"
	 viewBox="0 0 176 101.8" style="enable-background:new 0 0 176 101.8;" xml:space="preserve">
<style type="text/css">
	.st0{fill:#FFFFFF;}
	.st1{fill:#ffa700;}
	.st2{fill:#666666;}
	.st3{font-family:'FiraSans-Medium';}
	.st4{font-size:29px;}
	.st5{font-family:'FiraSans-Light';}
	.st6{font-size:27.8847px;}
</style>
<rect class="st0" width="176" height="101.8"/>
<path class="st1" d="M87.4,27.8h-5.7v21.8h5.7h1.9h2.8l0.5-0.7H96l0.5,0.7h4.1V23L87.4,21V27.8z M86.1,47.2h-2.8v-1.5h2.8V47.2z
	 M86.1,44.7h-2.8v-1.5h2.8V44.7z M86.1,42.1h-2.8v-1.5h2.8V42.1z M86.1,39.6h-2.8V38h2.8V39.6z M96.5,24.7h2.7v3.1h-2.7V24.7z
	 M96.5,28.9h2.7V32h-2.7V28.9z M96.5,33.1h2.7v3.1h-2.7V33.1z M96.5,37.3h2.7v3.1h-2.7V37.3z M92.9,24.7h2.7v3.1h-2.7V24.7z
	 M92.9,28.9h2.7V32h-2.7V28.9z M92.9,33.1h2.7v3.1h-2.7V33.1z M92.9,37.3h2.7v3.1h-2.7V37.3z M92.6,42H96v6h-3.4V42z M89.3,24.7H92
	v3.1h-2.7V24.7z M89.3,28.9H92V32h-2.7V28.9z M89.3,33.1H92v3.1h-2.7V33.1z M89.3,37.3H92v3.1h-2.7V37.3z"/>
<text transform="matrix(1 0 0 1 11 49.5825)" class="st2 st3 st4">archi</text>
<text transform="matrix(1 0 0 1 106 49.5825)" class="st2 st3 st4">tech</text>
<text transform="matrix(1 0 0 1 11.6025 76.5391)" class="st1 st5 st6">PROPERTIES</text>
</svg>
